<svg width="20" height="12" viewBox="0 0 20 12" fill="none" xmlns="http://www.w3.org/2000/svg">
<g clip-path="url(#clip0_2640_740)">
<path d="M6.46193 11.1284C6.65037 7.46863 6.39935 4.74328 6.45436 1.08567L6.46399 0.900078C6.48462 0.50962 6.92134 0.264066 7.28859 0.421106C11.0381 2.0222 13.276 3.14575 19.4443 5.92893C19.7146 6.05099 19.7036 6.42646 19.4278 6.5214C15.8736 7.7456 13.0463 9.32813 7.16754 11.5931C6.83262 11.7223 6.44336 11.4846 6.46124 11.1291L6.46193 11.1284Z" fill="white"/>
<path d="M6.82118 11.1284C6.90645 9.4602 6.90164 7.79129 6.86794 6.12167C6.83424 4.45205 6.78954 2.81169 6.81292 1.15635C6.81361 1.10424 6.81567 1.05285 6.81842 1.00145C6.8198 0.977182 6.82117 0.952912 6.82255 0.928642C6.82324 0.91508 6.8253 0.83656 6.82255 0.904372C6.81911 0.979323 6.84318 0.856547 6.84249 0.847267C6.84937 0.898662 6.80673 0.913652 6.83699 0.867968C6.8425 0.860116 6.8645 0.830135 6.8645 0.822283C6.8645 0.830135 6.80536 0.890096 6.84662 0.847267C6.85625 0.837274 6.86519 0.825852 6.87551 0.815859L6.89064 0.800869C6.91952 0.775885 6.91127 0.781596 6.86657 0.818C6.88238 0.815145 6.90577 0.790162 6.91952 0.78231C6.9319 0.775171 6.94428 0.768747 6.95666 0.761609C7.00961 0.730915 6.93603 0.775885 6.92984 0.77303C6.93328 0.774458 7.02681 0.750188 7.03368 0.74305C7.0103 0.765892 6.95528 0.74876 7.00274 0.747332C7.02131 0.747332 7.03919 0.745191 7.05776 0.745191C7.07014 0.745191 7.10315 0.753043 7.11277 0.748046C7.05776 0.73948 7.04469 0.737339 7.07289 0.74305C7.08389 0.745191 7.09489 0.747332 7.1059 0.750188C7.23313 0.78231 7.35692 0.849408 7.47796 0.901517C7.71385 1.00288 7.94975 1.10496 8.18495 1.20703C8.24135 1.23201 8.29843 1.25628 8.35482 1.28127C8.37821 1.29198 8.40228 1.30197 8.42566 1.31268C8.44354 1.32053 8.46142 1.32838 8.47861 1.33623C8.53845 1.36264 8.39953 1.30126 8.46348 1.32981C8.57421 1.37835 8.68562 1.4276 8.79635 1.47614C9.67802 1.86517 10.5569 2.26348 11.4331 2.66536C12.4186 3.11721 13.4028 3.57334 14.3876 4.02661C15.6716 4.61837 16.9563 5.20584 18.2438 5.78974C18.4384 5.87826 18.633 5.96606 18.8276 6.05386C18.9205 6.09597 19.0126 6.13737 19.1055 6.17949C19.1522 6.2009 19.1997 6.2216 19.2465 6.24302C19.265 6.25159 19.2822 6.26229 19.3008 6.27014C19.3572 6.29513 19.2533 6.21161 19.2925 6.26158C19.3297 6.30869 19.274 6.23231 19.2733 6.23088C19.276 6.24088 19.2905 6.26301 19.2967 6.27157C19.3242 6.30584 19.2657 6.17878 19.2829 6.24302C19.2932 6.28014 19.2705 6.26443 19.2795 6.19805C19.2781 6.21018 19.2781 6.2316 19.2795 6.24373C19.2857 6.2887 19.3001 6.14237 19.2822 6.20733C19.2719 6.24587 19.265 6.21018 19.3001 6.1695C19.2967 6.17806 19.2919 6.18591 19.287 6.19377C19.2726 6.21804 19.2829 6.2059 19.3173 6.15665C19.3173 6.15665 19.2932 6.18092 19.2919 6.18449C19.3001 6.15593 19.3606 6.13238 19.3015 6.17307C19.2664 6.19734 19.287 6.15379 19.3297 6.16164C19.3228 6.16022 19.2994 6.17235 19.2905 6.17521C19.2258 6.19733 19.1612 6.22018 19.0965 6.24302C18.6076 6.41505 18.1213 6.59779 17.6385 6.78838C16.631 7.18597 15.6366 7.61855 14.6442 8.05469C14.1132 8.28811 13.583 8.52295 13.0514 8.75637C12.9819 8.78707 12.9124 8.81705 12.843 8.84774C12.8217 8.85702 12.766 8.88129 12.8512 8.84417C12.8361 8.8506 12.8217 8.85702 12.8065 8.86345C12.7653 8.88129 12.7247 8.89914 12.6834 8.91698C12.5356 8.98123 12.3877 9.04618 12.2398 9.11043C11.9393 9.24106 11.6381 9.37097 11.3362 9.49946C10.6663 9.7857 9.99438 10.0662 9.31971 10.341C8.95315 10.4902 8.5859 10.638 8.21796 10.7836C8.01921 10.8621 7.82045 10.9407 7.6217 11.0185C7.42294 11.0963 7.22625 11.1898 7.02406 11.2483C7.01787 11.2505 6.98073 11.2569 6.97935 11.259C6.99036 11.2376 7.05982 11.254 7.00824 11.2547C6.99036 11.2547 6.9711 11.2547 6.95322 11.2554C6.89889 11.2583 6.92915 11.2276 6.97248 11.2612C6.95803 11.2497 6.89545 11.2383 6.87894 11.2355C6.83562 11.229 6.95597 11.2804 6.89614 11.2426C6.88445 11.2347 6.87138 11.229 6.85969 11.2212C6.8535 11.2169 6.83355 11.1991 6.8253 11.1969L6.86588 11.2283C6.85556 11.219 6.84525 11.2091 6.83562 11.1991C6.82805 11.1912 6.81636 11.1719 6.80811 11.1677C6.85762 11.1976 6.84525 11.2255 6.82874 11.1912C6.82393 11.1805 6.79642 11.1177 6.81911 11.1791C6.84181 11.2405 6.82049 11.1726 6.81705 11.1634C6.7971 11.1091 6.82324 11.1862 6.81842 11.1976C6.82393 11.1841 6.81636 11.1448 6.81705 11.1298C6.82186 10.9342 6.64787 10.7479 6.45736 10.7565C6.26686 10.7651 6.10318 10.9207 6.09768 11.1298C6.0853 11.6059 6.46562 11.9507 6.8982 11.9971C7.10659 12.0192 7.29159 11.9407 7.48278 11.8665C7.68566 11.788 7.88854 11.7087 8.09073 11.6288C8.8438 11.3325 9.59412 11.0292 10.3417 10.7179C11.6071 10.1919 12.8629 9.64293 14.1173 9.08973C14.3835 8.97266 14.6497 8.85488 14.9151 8.73781C14.9818 8.70855 15.0479 8.67928 15.1146 8.65001C15.1441 8.63717 15.1737 8.6236 15.204 8.61075C15.2205 8.60362 15.237 8.59648 15.2535 8.58934C15.1531 8.6336 15.2267 8.60076 15.2466 8.5922C15.3766 8.53509 15.5066 8.4787 15.6372 8.42159C16.1352 8.20531 16.6345 7.99187 17.1365 7.78558C17.6385 7.57929 18.1206 7.3887 18.6179 7.2031C18.8717 7.10817 19.1268 7.01608 19.3826 6.92686C19.5704 6.86119 19.7368 6.79837 19.862 6.63062C19.9872 6.46287 20.0284 6.2316 19.9672 6.02673C19.8984 5.79617 19.732 5.65555 19.5264 5.56275C19.3207 5.46995 19.1179 5.37787 18.9136 5.28579C18.5395 5.11661 18.1654 4.94672 17.7912 4.77684C17.1166 4.46989 16.4426 4.16153 15.7686 3.85244C14.684 3.3542 13.6009 2.8531 12.5163 2.35342C11.6044 1.9337 10.6917 1.5154 9.77499 1.10638C9.29289 0.89081 8.80942 0.678092 8.32525 0.467516C8.08317 0.361871 7.8404 0.257653 7.59763 0.153436C7.44151 0.0863368 7.29915 0.0242346 7.12928 0.00424767C6.9374 -0.0185945 6.73796 0.0335142 6.56878 0.127024C6.39959 0.220535 6.26342 0.366867 6.18708 0.538898C6.11694 0.696651 6.1018 0.855833 6.09286 1.02644C6.07154 1.42546 6.08117 1.82805 6.08186 2.22708C6.08186 3.07938 6.09699 3.93168 6.11556 4.78326C6.15132 6.45502 6.19327 8.12678 6.14926 9.79926C6.13757 10.2418 6.12037 10.6851 6.09768 11.127C6.08736 11.3218 6.2703 11.5089 6.45736 11.5003C6.66093 11.491 6.80605 11.3361 6.81705 11.127L6.82118 11.1284Z" fill="black"/>
<path d="M4.67966 4.15443C3.54283 4.16871 2.40601 4.15443 1.26918 4.15729C1.13095 4.15729 0.998903 4.28292 1.00509 4.43139C1.01128 4.57987 1.12132 4.7055 1.26918 4.7055C2.40601 4.70264 3.54283 4.71692 4.67966 4.70264C4.81789 4.70122 4.94994 4.57773 4.94375 4.42854C4.93756 4.27935 4.82752 4.153 4.67966 4.15443Z" fill="black"/>
<path d="M5.35097 5.03528C4.80766 5.03528 4.26366 5.03528 3.72035 5.03528C3.58212 5.03528 3.45007 5.16162 3.45626 5.30938C3.46245 5.45714 3.57249 5.58349 3.72035 5.58349C4.26366 5.58349 4.80766 5.58349 5.35097 5.58349C5.48921 5.58349 5.62125 5.45714 5.61506 5.30938C5.60887 5.16162 5.49884 5.03528 5.35097 5.03528Z" fill="black"/>
<path d="M5.28849 6.33228H2.97426C2.83603 6.33228 2.70398 6.45862 2.71017 6.60638C2.71636 6.75414 2.8264 6.88049 2.97426 6.88049H5.28849C5.42672 6.88049 5.55877 6.75414 5.55258 6.60638C5.54639 6.45862 5.43635 6.33228 5.28849 6.33228Z" fill="black"/>
<path d="M5.18916 7.49866C3.85634 7.49866 2.52282 7.51436 1.18999 7.54505C0.881197 7.55219 0.573092 7.56005 0.264299 7.56933C0.126065 7.57361 -0.00598024 7.69282 0.000209366 7.84343C0.00639897 7.99405 0.116436 8.12182 0.264299 8.11754C1.49809 8.08185 2.73258 8.06043 3.96706 8.05115C4.3742 8.0483 4.78203 8.04687 5.18916 8.04687C5.3274 8.04687 5.45944 7.92052 5.45325 7.77276C5.44706 7.625 5.33703 7.49866 5.18916 7.49866Z" fill="black"/>
<path d="M5.05579 8.72571H3.28969C3.15146 8.72571 3.01941 8.85205 3.0256 8.99981C3.03179 9.14757 3.14183 9.27392 3.28969 9.27392H5.05579C5.19403 9.27392 5.32607 9.14757 5.31988 8.99981C5.31369 8.85205 5.20365 8.72571 5.05579 8.72571Z" fill="black"/>
<path d="M15.1226 6.10391C13.45 6.83058 11.9982 7.49229 10.5299 7.98554C10.1035 8.12901 9.69771 8.37742 9.33183 8.5416C8.99416 8.69222 8.59114 8.79501 8.27203 8.97203C8.26653 7.11682 8.30229 5.2616 8.37932 3.4071L8.42609 3.44208C10.3827 4.38432 13.1151 5.24305 15.1232 6.10391H15.1226Z" fill="#D6F4FB"/>
<path d="M15.0329 5.76268C13.8376 6.28234 12.6479 6.82127 11.4313 7.28668C10.8831 7.49654 10.3206 7.66286 9.7917 7.92269C9.26283 8.18252 8.64662 8.38239 8.10056 8.66649L8.61293 8.972C8.60811 7.11608 8.64387 5.26086 8.72021 3.40708L8.20785 3.71259C8.38804 3.8475 8.62943 3.92388 8.833 4.01454C9.11566 4.14017 9.39969 4.2608 9.68579 4.37787C10.2855 4.62342 10.8907 4.85399 11.4966 5.08098C12.6795 5.52426 13.8693 5.94827 15.0329 6.44437C15.438 6.61712 15.6147 5.93328 15.2138 5.76268C14.0873 5.28228 12.9353 4.86969 11.7896 4.4414C11.1995 4.22083 10.6101 3.9974 10.0255 3.76113C9.74081 3.64621 9.45746 3.52843 9.17687 3.40351C8.9733 3.31357 8.73122 3.23647 8.55172 3.10156C8.32958 2.93524 8.04898 3.16295 8.03936 3.40708C7.96302 5.26086 7.92725 7.11608 7.93207 8.972C7.93276 9.25325 8.21748 9.3953 8.44443 9.27752C8.95404 9.01269 9.51042 8.8478 10.0262 8.58868C10.5709 8.31529 11.1569 8.14612 11.7229 7.92697C12.9009 7.47084 14.0543 6.94976 15.2138 6.44509C15.612 6.27163 15.4373 5.58708 15.0329 5.76339V5.76268Z" fill="black"/>
</g>
<defs>
<clipPath id="clip0_2640_740">
<rect width="20" height="12" fill="white"/>
</clipPath>
</defs>
</svg>
