<svg width="163" height="108" viewBox="0 0 163 108" fill="none" xmlns="http://www.w3.org/2000/svg">
<path d="M152.012 40.9489L155.467 89.6413C155.467 89.6413 156.363 100.333 152.012 102.136C147.661 103.939 126.288 104.068 126.288 104.068L45.4046 106H18.2724C18.2724 106 9.54565 104.562 6.88233 103.682C4.21784 102.801 3.04329 95.9528 2.27478 92.4748C1.50744 88.9969 1.12259 63.1042 1.25088 60.3998C1.37916 57.6942 2.65845 43.6534 2.65845 43.6534C2.65845 43.6534 4.70625 34.5072 10.9768 34.121C17.2473 33.7348 42.2034 34.3781 45.787 34.7654C49.3707 35.1516 83.2854 36.5684 86.3571 36.1822C89.4288 35.796 94.6566 34.0298 100.437 33.6306C104.186 33.3712 114.592 32.7137 114.592 32.7137L120.135 31.6997C120.135 31.6997 122.833 32.0598 124.88 32.5751C126.928 33.0904 134.863 33.0904 134.863 33.0904C134.863 33.0904 145.613 32.3181 147.021 32.8334C148.429 33.3486 150.605 35.9251 150.733 36.8266C150.862 37.7281 152.013 40.9489 152.013 40.9489H152.012Z" fill="#B9FFF6"/>
<path d="M14.6478 104.421C11.3596 104.178 7.78064 103.79 5.69988 100.885C3.88511 98.3515 3.50615 94.947 3.18956 91.9334C2.45047 84.8946 2.28923 77.8048 2.38809 70.7317C2.48342 63.9701 2.7953 57.2096 3.15661 50.4575C3.33667 47.0897 3.56146 43.6378 4.77837 40.4584C6.26833 36.5647 9.00226 35.431 12.9072 35.2166C26.6816 34.4609 40.5078 35.5767 54.254 36.3704C61.2871 36.7767 68.3285 37.1262 75.3746 37.1594C78.9924 37.1759 82.6102 37.2802 86.2268 37.1416C89.7916 37.0054 93.1775 36.2946 96.6882 35.8338C101.652 35.1823 106.629 34.6279 111.614 34.1517C116.712 33.6636 121.992 33.5772 127.044 34.2251C129.841 34.5841 132.901 34.2583 135.725 34.2725C138.627 34.2867 141.529 34.301 144.43 34.3163L145.127 34.3199C146.123 34.3246 147.162 34.34 148.043 34.8056C149.91 35.7912 150.291 38.2669 150.449 40.3826C151.669 56.6991 152.889 73.0144 154.109 89.3308C154.402 93.2435 154.466 97.7639 151.55 100.37C149.334 102.352 146.103 102.534 143.138 102.615C118.021 103.294 92.901 103.924 67.7812 104.503C50.2313 104.908 32.6661 105.288 15.1257 104.549C14.6902 104.53 14.2112 104.526 13.8734 104.804C13.3085 105.269 13.5451 106.263 14.1382 106.692C14.7314 107.121 15.5129 107.145 16.2437 107.152C58.6897 107.582 101.13 106.222 143.556 104.862C146.758 104.759 150.192 104.576 152.736 102.615C156.79 99.4863 156.783 93.4485 156.398 88.3216C155.198 72.3321 153.996 56.3425 152.796 40.353C152.586 37.5669 152.119 34.3424 149.722 32.9328C148.502 32.2161 147.027 32.145 145.615 32.0917C134.172 31.6629 122.699 31.1879 111.251 31.7008C109.628 31.773 108.006 31.8583 106.385 31.9436C103.001 32.1213 99.6022 32.3002 96.2787 32.9659C94.1697 33.3876 92.0971 34.0072 89.9634 34.2998C87.8556 34.5888 85.6277 34.68 83.4975 34.7653C79.5314 34.9229 75.5605 34.9252 71.5932 34.834C63.6598 34.6528 55.7416 34.0937 47.8211 33.6234C40.1689 33.1685 32.512 32.7326 24.8457 32.6508C21.4774 32.6141 18.1091 32.6449 14.7432 32.7717C11.7762 32.8842 8.49855 32.851 5.99999 34.7073C1.39714 38.1236 1.08291 45.2347 0.803988 50.4575C0.393251 58.1301 0.0366508 65.818 0.00958213 73.5024C-0.0163096 81.1003 -0.0986924 89.2065 1.51719 96.6682C2.14212 99.555 3.33785 102.422 5.71871 104.273C8.2667 106.254 11.5479 106.562 14.6478 106.79C16.159 106.902 16.1519 104.533 14.6478 104.421Z" fill="black"/>
<path d="M157.453 32.978L160.908 81.6704C160.908 81.6704 161.804 92.3624 157.453 94.1654C153.102 95.9683 131.729 96.0974 131.729 96.0974L50.846 98.0295H23.7138C23.7138 98.0295 14.9871 96.5914 12.3237 95.7113C9.65924 94.8299 8.4847 87.9818 7.71618 84.5039C6.94885 81.0259 6.564 55.1333 6.69228 52.4289C6.82056 49.7233 8.09985 35.6824 8.09985 35.6824C8.09985 35.6824 10.1477 26.5362 16.4182 26.1501C22.6887 25.7639 47.6448 26.4071 51.2285 26.7945C54.8121 27.1806 88.7268 28.5974 91.7985 28.2112C94.8702 27.8251 100.098 26.0588 105.879 25.6596C109.627 25.4002 120.033 24.7428 120.033 24.7428L125.577 23.7288C125.577 23.7288 128.274 24.0889 130.322 24.6042C132.37 25.1195 140.304 25.1195 140.304 25.1195C140.304 25.1195 151.054 24.3471 152.463 24.8624C153.87 25.3777 156.047 27.9542 156.175 28.8556C156.303 29.7571 157.454 32.978 157.454 32.978H157.453Z" fill="white"/>
<path d="M20.0904 96.4503C16.8022 96.2075 13.2232 95.8189 11.1425 92.9143C9.32769 90.3805 8.94873 86.976 8.63214 83.9624C7.89305 76.9236 7.73182 69.8339 7.83068 62.7607C7.926 55.9991 8.23788 49.2387 8.59919 42.4866C8.77926 39.1188 9.00404 35.6669 10.221 32.4875C11.7109 28.5937 14.4448 27.4601 18.3498 27.2457C32.1242 26.4899 45.9504 27.6058 59.6966 28.3995C66.7297 28.8058 73.7711 29.1552 80.8172 29.1884C84.435 29.205 88.0527 29.3092 91.6694 29.1706C95.2342 29.0344 98.6201 28.3237 102.131 27.8629C107.095 27.2113 112.072 26.6569 117.056 26.1807C122.155 25.6927 127.434 25.6062 132.487 26.2542C135.284 26.6131 138.344 26.2874 141.167 26.3016C144.07 26.3158 146.972 26.33 149.873 26.3454L150.57 26.349C151.565 26.3537 152.604 26.3691 153.486 26.8346C155.352 27.8202 155.734 30.296 155.891 32.4117C157.112 48.7281 158.331 65.0434 159.552 81.3599C159.845 85.2726 159.908 89.793 156.993 92.399C154.777 94.3809 151.545 94.5633 148.581 94.6438C123.463 95.3226 98.3435 95.9528 73.2238 96.5321C55.6739 96.9372 38.1087 97.3174 20.5682 96.5783C20.1328 96.5593 19.6538 96.5546 19.316 96.8329C18.7511 97.2985 18.9877 98.2924 19.5808 98.7212C20.174 99.15 20.9554 99.1737 21.6863 99.1808C64.1323 99.6108 106.572 98.2509 148.998 96.891C152.201 96.7879 155.635 96.6055 158.178 94.6438C162.233 91.5153 162.226 85.4775 161.841 80.3506C160.64 64.3611 159.439 48.3716 158.238 32.382C158.029 29.5959 157.562 26.3715 155.164 24.9618C153.945 24.2451 152.469 24.1741 151.058 24.1208C139.615 23.6919 128.141 23.2169 116.694 23.7298C115.071 23.8021 113.449 23.8874 111.827 23.9727C108.444 24.1504 105.045 24.3292 101.721 24.995C99.6122 25.4167 97.5397 26.0362 95.406 26.3288C93.2982 26.6179 91.0703 26.7091 88.9401 26.7944C84.974 26.9519 81.0031 26.9543 77.0358 26.8631C69.1023 26.6818 61.1842 26.1227 53.2636 25.6524C45.6115 25.1975 37.9546 24.7616 30.2882 24.6799C26.92 24.6432 23.5517 24.674 20.1858 24.8007C17.2188 24.9132 13.9411 24.8801 11.4426 26.7363C6.83855 30.1562 6.52432 37.2673 6.24422 42.4901C5.83348 50.1627 5.47688 57.8506 5.45099 65.535C5.4251 73.133 5.34271 81.2391 6.95859 88.7008C7.58353 91.5876 8.77926 94.4543 11.1601 96.3058C13.7081 98.2864 16.9893 98.5944 20.0892 98.823C21.6004 98.9344 21.5933 96.5652 20.0892 96.4539L20.0904 96.4503Z" fill="black"/>
<path d="M85.9513 20.2093C86.0654 17.7679 84.2012 16.023 81.5132 16.0431C78.8251 16.023 76.9633 17.7679 77.0751 20.2093C77.1457 22.6496 79.0076 24.4051 81.5132 24.3862C84.0176 24.4051 85.8818 22.6496 85.9513 20.2093Z" fill="#B9FFF6" stroke="black" stroke-width="2" stroke-linecap="round" stroke-linejoin="round"/>
<path d="M84.3705 10.4437C84.4435 8.87175 83.2431 7.74758 81.513 7.76061C79.7818 7.74758 78.5825 8.87175 78.6555 10.4437C78.7002 12.0156 79.8995 13.1457 81.513 13.1339C83.1254 13.1457 84.3258 12.0156 84.3705 10.4437Z" fill="#B9FFF6" stroke="black" stroke-width="2" stroke-linecap="round" stroke-linejoin="round"/>
<path d="M83.4744 2.84093C83.525 1.76177 82.7012 0.99061 81.5137 1.00009C80.3262 0.99061 79.5024 1.76177 79.553 2.84093C79.5836 3.9189 80.4074 4.69481 81.5137 4.68651C82.62 4.69481 83.4438 3.9189 83.4744 2.84093Z" fill="#B9FFF6" stroke="black" stroke-width="2" stroke-linecap="round" stroke-linejoin="round"/>
</svg>
