<svg width="168" height="103" viewBox="0 0 168 103" fill="none" xmlns="http://www.w3.org/2000/svg">
<path d="M4.69799 74.3906L1.12562 24.7289C1.12562 24.7289 0.199679 13.8239 4.69799 11.9851C9.1963 10.1463 31.2924 10.0146 31.2924 10.0146L114.915 8.04407H142.965C142.965 8.04407 151.988 9.51078 154.741 10.4085C157.495 11.3061 158.71 18.2918 159.505 21.8389C160.298 25.3861 160.696 51.7943 160.563 54.5525C160.431 57.312 159.108 71.6324 159.108 71.6324C159.108 71.6324 156.991 80.9607 150.508 81.3545C144.025 81.7484 118.224 81.0924 114.519 80.6973C110.814 80.3022 75.7511 78.8585 72.5754 79.2523C69.3997 79.6462 63.9949 81.4476 58.0183 81.8547C54.1429 82.1193 43.3844 82.7898 43.3844 82.7898L37.6536 83.824C37.6536 83.824 34.8648 83.4567 32.7477 82.9312C30.6305 82.4056 22.4272 82.4056 22.4272 82.4056C22.4272 82.4056 11.3134 83.1934 9.857 82.6678C8.40055 82.1423 6.152 79.5145 6.01938 78.5951C5.88675 77.6757 4.69677 74.3906 4.69677 74.3906H4.69799Z" fill="#B9FFF6"/>
<path d="M146.716 9.65433C150.116 9.902 153.816 10.2983 155.967 13.2607C157.843 15.845 158.235 19.3173 158.562 22.3908C159.327 29.5698 159.493 36.8007 159.391 44.0146C159.293 50.9109 158.97 57.8059 158.597 64.6924C158.41 68.1273 158.178 71.6479 156.92 74.8906C155.379 78.8618 152.553 80.0181 148.516 80.2367C134.275 81.0075 119.981 79.8695 105.769 79.06C98.4978 78.6456 91.218 78.2892 83.9333 78.2553C80.193 78.2384 76.4527 78.1321 72.7137 78.2735C69.0282 78.4124 65.5276 79.1373 61.898 79.6073C56.7658 80.2718 51.6202 80.8372 46.4672 81.3229C41.1963 81.8206 35.738 81.9088 30.5145 81.248C27.6223 80.8819 24.4587 81.2141 21.5398 81.1997C18.5393 81.1852 15.5388 81.1707 12.5395 81.155L11.8192 81.1513C10.7898 81.1465 9.71541 81.1308 8.80406 80.656C6.8743 79.6508 6.48008 77.1257 6.31703 74.9679C5.05527 58.3266 3.79472 41.6865 2.53295 25.0452C2.22998 21.0546 2.16428 16.4442 5.17816 13.7863C7.46929 11.765 10.8105 11.5789 13.8755 11.4968C39.8433 10.8045 65.8135 10.1618 91.7838 9.57096C109.928 9.15777 128.088 8.76995 146.222 9.52384C146.672 9.54317 147.168 9.54801 147.517 9.26409C148.101 8.78928 147.856 7.77562 147.243 7.33827C146.63 6.90091 145.822 6.87675 145.066 6.8695C101.183 6.43093 57.306 7.81791 13.4435 9.20489C10.1327 9.31 6.58228 9.49606 3.95289 11.4968C-0.238798 14.6888 -0.231498 20.8456 0.166378 26.0745C1.40746 42.3824 2.64976 58.6903 3.89084 74.9981C4.10742 77.8397 4.59047 81.1284 7.06898 82.5661C8.32953 83.297 9.85533 83.3695 11.3142 83.4239C23.1446 83.8612 35.0067 84.3457 46.842 83.8226C48.5199 83.7489 50.1966 83.6619 51.8732 83.5749C55.3714 83.3937 58.8854 83.2113 62.3214 82.5323C64.5019 82.1021 66.6445 81.4703 68.8505 81.1719C71.0565 80.8734 73.333 80.784 75.5353 80.6971C79.6357 80.5364 83.7411 80.534 87.8427 80.627C96.0448 80.8118 104.231 81.3821 112.42 81.8617C120.331 82.3257 128.247 82.7703 136.173 82.8536C139.655 82.8911 143.138 82.8597 146.618 82.7304C149.685 82.6156 153.074 82.6494 155.657 80.7562C160.417 77.2683 160.742 70.0156 161.031 64.6888C161.456 56.8635 161.825 49.0225 161.851 41.1851C161.878 33.4359 161.963 25.1684 160.293 17.5582C159.647 14.6139 158.41 11.6901 155.949 9.80172C153.315 7.78166 149.922 7.46754 146.717 7.23436C145.155 7.1208 145.162 9.53713 146.717 9.6507L146.716 9.65433Z" fill="black"/>
<path d="M10.3054 67.603L6.73304 17.9413C6.73304 17.9413 5.8071 7.03635 10.3054 5.19752C14.8037 3.35868 36.8998 3.22699 36.8998 3.22699L120.522 1.25647H148.573C148.573 1.25647 157.595 2.72319 160.349 3.62086C163.102 4.51852 164.318 11.5042 165.112 15.0513C165.905 18.5985 166.303 45.0067 166.171 47.7649C166.038 50.5244 164.715 64.8448 164.715 64.8448C164.715 64.8448 162.598 74.1731 156.115 74.5669C149.633 74.9608 123.832 74.3048 120.127 73.9097C116.422 73.5146 81.3586 72.0709 78.1828 72.4647C75.0071 72.8586 69.6023 74.66 63.6257 75.0671C59.7504 75.3317 48.9919 76.0022 48.9919 76.0022L43.261 77.0364C43.261 77.0364 40.4722 76.6691 38.3551 76.1436C36.2379 75.618 28.0346 75.618 28.0346 75.618C28.0346 75.618 16.9209 76.4058 15.4644 75.8802C14.008 75.3547 11.7594 72.7269 11.6268 71.8075C11.4942 70.8881 10.3042 67.603 10.3042 67.603H10.3054Z" fill="white"/>
<path d="M152.324 2.86693C155.723 3.1146 159.423 3.51088 161.575 6.47331C163.451 9.05759 163.843 12.5299 164.17 15.6034C164.934 22.7824 165.101 30.0133 164.998 37.2272C164.9 44.1235 164.578 51.0185 164.204 57.905C164.018 61.3399 163.785 64.8605 162.527 68.1032C160.987 72.0744 158.16 73.2307 154.123 73.4493C139.882 74.2202 125.588 73.0821 111.376 72.2726C104.105 71.8582 96.8254 71.5018 89.5407 71.4679C85.8004 71.451 82.0602 71.3447 78.3211 71.4861C74.6356 71.625 71.135 72.3499 67.5054 72.8199C62.3732 73.4844 57.2276 74.0498 52.0747 74.5355C46.8037 75.0332 41.3454 75.1214 36.1219 74.4606C33.2297 74.0945 30.0661 74.4268 27.1472 74.4123C24.1467 74.3978 21.1462 74.3833 18.1469 74.3676L17.4266 74.3639C16.3972 74.3591 15.3228 74.3434 14.4115 73.8686C12.4817 72.8634 12.0875 70.3383 11.9245 68.1805C10.6627 51.5392 9.40214 34.8991 8.14037 18.2578C7.8374 14.2672 7.7717 9.65684 10.7856 6.99887C13.0767 4.9776 16.4179 4.79154 19.4829 4.70939C45.4507 4.01711 71.4209 3.37436 97.3912 2.78357C115.535 2.37037 133.695 1.98255 151.83 2.73645C152.28 2.75578 152.775 2.76061 153.124 2.47669C153.708 2.00188 153.464 0.988228 152.85 0.550871C152.237 0.113514 151.429 0.0893503 150.674 0.0821013C106.792 -0.355256 62.9134 1.03172 19.0509 2.4187C15.7402 2.52381 12.1897 2.70987 9.56032 4.7106C5.36862 7.90137 5.37592 14.0594 5.7738 19.2884C7.01488 35.5962 8.25718 51.9041 9.49826 68.2119C9.71484 71.0535 10.1979 74.3422 12.6764 75.7799C13.937 76.5108 15.4628 76.5833 16.9216 76.6377C28.7521 77.0751 40.6141 77.5595 52.4494 77.0364C54.1273 76.9627 55.804 76.8757 57.4807 76.7887C60.9788 76.6075 64.4928 76.4251 67.9289 75.7461C70.1093 75.316 72.252 74.6841 74.4579 74.3857C76.6639 74.0873 78.9404 73.9978 81.1427 73.9109C85.2432 73.7502 89.3485 73.7478 93.4501 73.8408C101.652 74.0256 109.838 74.5959 118.027 75.0755C125.938 75.5395 133.855 75.9841 141.781 76.0674C145.263 76.1049 148.745 76.0735 152.225 75.9442C155.293 75.8294 158.681 75.8633 161.264 73.9701C166.024 70.4821 166.349 63.2294 166.639 57.9026C167.063 50.0773 167.432 42.2363 167.459 34.3989C167.486 26.6497 167.571 18.3822 165.9 10.772C165.254 7.82767 164.018 4.9039 161.556 3.01553C158.922 0.995477 155.53 0.681353 152.325 0.448176C150.763 0.334609 150.77 2.75095 152.325 2.86451L152.324 2.86693Z" fill="black"/>
<path d="M81.0237 81.5248C80.9057 84.0148 82.833 85.7945 85.612 85.7739C88.3911 85.7945 90.316 84.0148 90.2004 81.5248C90.1274 79.036 88.2025 77.2455 85.612 77.2648C83.0228 77.2455 81.0955 79.036 81.0237 81.5248Z" fill="#B9FFF6" stroke="black" stroke-width="2" stroke-linecap="round" stroke-linejoin="round"/>
<path d="M82.6595 91.4849C82.5841 93.0882 83.8252 94.2347 85.6138 94.2214C87.4036 94.2347 88.6435 93.0882 88.568 91.4849C88.5218 89.8817 87.2819 88.7291 85.6138 88.7412C83.9468 88.7291 82.7057 89.8817 82.6595 91.4849Z" fill="#B9FFF6" stroke="black" stroke-width="2" stroke-linecap="round" stroke-linejoin="round"/>
<path d="M83.5833 99.239C83.531 100.34 84.3827 101.126 85.6104 101.116C86.8381 101.126 87.6899 100.34 87.6375 99.239C87.6059 98.1395 86.7542 97.3482 85.6104 97.3566C84.4667 97.3482 83.615 98.1395 83.5833 99.239Z" fill="#B9FFF6" stroke="black" stroke-width="2" stroke-linecap="round" stroke-linejoin="round"/>
</svg>
