<svg width="32" height="28" viewBox="0 0 32 28" fill="none" xmlns="http://www.w3.org/2000/svg">
<g clip-path="url(#clip0_2542_4679)">
<path d="M13.9458 25.955C10.92 25.5674 8.53699 25.0026 6.27196 24.0695C4.57462 23.3694 3.69563 22.2215 3.67044 20.5464C3.64481 18.7723 3.7691 17.0161 4.20296 15.2865C4.29048 14.9378 4.2346 14.6508 4.03639 14.3255C2.95256 12.539 2.36471 10.6568 2.73626 8.62253C3.13889 6.42461 4.78791 5.1769 7.30752 5.17239C7.72193 5.17224 7.8979 5.07112 8.02625 4.70564C8.75191 2.63633 10.2904 1.45621 12.3759 1.36201C14.2144 1.27886 15.7689 1.90486 17.1086 2.98885C17.4281 3.24692 17.7262 3.53528 17.983 3.84276C18.1919 4.09091 18.3295 4.09396 18.6238 3.93471C20.4288 2.95139 22.35 2.7585 24.3062 3.55898C26.7607 4.56328 27.8961 7.01287 27.1122 9.43387C27.0504 9.62648 26.9807 9.77862 27.2404 9.92081C30.7422 11.8515 30.4117 15.4773 27.6483 17.7323C27.6244 17.7528 27.6004 17.7743 27.5722 17.7882C26.8066 18.1743 26.5168 18.7992 26.3351 19.5349C26.0019 20.8868 25.6296 22.2378 25.5742 23.62C25.5164 25.0865 24.594 25.642 23.3939 25.9563C22.1498 26.2821 20.8609 26.2879 19.5745 26.2643C17.5051 26.2261 15.439 26.1144 13.9458 25.955ZM18.0392 20.4334C18.338 20.4596 18.6367 20.4941 18.9376 20.5087C20.0934 20.5672 20.9386 20.121 21.1703 19.3232C21.3077 18.8506 21.3494 18.3677 21.2744 17.8789C20.897 15.4463 19.1197 13.7153 16.3735 13.1126C13.8388 12.5558 11.1234 13.4872 9.65396 15.4331C9.26211 15.9515 8.98831 16.5155 9.05405 17.1675C9.20346 18.6495 10.9464 19.8211 12.5949 19.514C13.8166 19.2863 14.977 19.3574 16.0874 19.9042C16.695 20.2036 17.3522 20.3658 18.0392 20.4334ZM16.6696 8.44347C17.1125 5.71603 14.7746 4.41488 13.0195 4.43847C12.1779 4.45006 11.5951 4.84333 11.3814 5.55303C11.1674 6.2639 11.0068 6.98719 11.0142 7.72622C11.0287 9.04094 11.6674 10.0518 13.0137 10.6753C14.0442 11.1522 15.0526 10.975 15.7917 10.1881C16.2899 9.65751 16.5305 9.01962 16.6668 8.44425L16.6696 8.44347ZM18.7882 9.08841C18.7807 9.2173 18.7613 9.40765 18.7634 9.5987C18.7742 10.7007 19.4124 11.3311 20.6419 11.4646C21.9566 11.6067 23.3752 10.9304 24.0343 9.84707C24.639 8.85012 24.4441 7.50593 23.5611 6.58404C22.577 5.55821 21.4323 5.4512 20.4072 6.31036C19.526 7.05066 19.0079 7.96944 18.7891 9.09093L18.7882 9.08841ZM9.89326 11.9742C10.3339 9.83065 8.53154 8.61112 7.07067 8.35145C6.22985 8.20219 5.60102 8.50183 5.23806 9.18177C4.47138 10.6205 5.1375 12.5199 6.72232 13.4161C8.02339 14.1524 9.36043 13.7123 9.78329 12.4055C9.84218 12.222 9.87901 12.033 9.89326 11.9742ZM22.9217 13.8829C22.7307 14.9225 23.2389 15.7012 24.3015 15.9932C25.7736 16.3987 27.3935 15.6785 27.8887 14.4C28.3006 13.336 27.7697 12.3442 26.5923 11.9726C24.9192 11.4452 23.2059 12.3368 22.9217 13.8829Z" fill="#FCFCFD" stroke="black" stroke-miterlimit="10"/>
<path d="M18.0392 20.4334C17.3521 20.3658 16.695 20.2035 16.0874 19.9041C14.977 19.3573 13.8152 19.286 12.5949 19.5139C10.9464 19.821 9.20477 18.6496 9.05404 17.1675C8.98831 16.5154 9.26211 15.9515 9.65395 15.433C11.1233 13.4871 13.8388 12.5558 16.3735 13.1126C19.1197 13.7152 20.8972 15.445 21.2744 17.8788C21.3507 18.3679 21.3077 18.8505 21.1703 19.3232C20.9399 20.1211 20.0947 20.5673 18.9375 20.5086C18.6382 20.4931 18.3395 20.4586 18.0392 20.4334Z" fill="#FC7A8F"/>
<path d="M16.67 8.44341C16.5339 9.01761 16.2933 9.6555 15.7949 10.1872C15.0545 10.974 14.0474 11.1514 13.0169 10.6745C11.6706 10.0509 11.0304 9.04107 11.0174 7.72538C11.01 6.98634 11.1706 6.26305 11.3846 5.55218C11.5981 4.84365 12.1798 4.44902 13.0227 4.43763C14.7776 4.4152 17.1158 5.71519 16.6728 8.44262L16.67 8.44341Z" fill="#FB7B90"/>
<path d="M18.7879 9.08839C19.008 7.96709 19.5248 7.04812 20.4061 6.30782C21.4298 5.44848 22.5759 5.55568 23.56 6.5815C24.4442 7.50359 24.6392 8.84777 24.0331 9.84453C23.3754 10.9281 21.9552 11.6054 20.6407 11.4621C19.4112 11.3286 18.7743 10.6983 18.7622 9.59617C18.7601 9.40511 18.7809 9.21495 18.787 9.08588L18.7879 9.08839Z" fill="#FB7B90"/>
<path d="M9.89163 11.974C9.87718 12.0339 9.84035 12.223 9.78166 12.4053C9.35879 13.7121 8.02175 14.1522 6.72068 13.4159C5.13587 12.5197 4.46995 10.6191 5.23642 9.18156C5.59938 8.50162 6.22821 8.20198 7.06904 8.35124C8.53011 8.60975 10.3322 9.83044 9.89163 11.974Z" fill="#FB7B90"/>
<path d="M22.9203 13.8826C23.2045 12.3366 24.9178 11.445 26.5909 11.9724C27.7696 12.3442 28.2992 13.3358 27.8873 14.3998C27.3919 15.6795 25.7723 16.3985 24.3001 15.9929C23.2378 15.6998 22.7293 14.9223 22.9203 13.8826Z" fill="#FA7B90"/>
</g>
<defs>
<clipPath id="clip0_2542_4679">
<rect width="27.7374" height="24.3778" fill="white" transform="matrix(0.989863 0.142024 -0.170782 0.985309 4.16309 0)"/>
</clipPath>
</defs>
</svg>
